<svg xmlns="http://www.w3.org/2000/svg" xmlns:xlink="http://www.w3.org/1999/xlink" width="500" zoomAndPan="magnify" viewBox="0 0 375 374.999991" height="500" preserveAspectRatio="xMidYMid meet" version="1.0"><defs><clipPath id="9fdcb50c45"><path d="M 15.304688 0 L 343.804688 0 L 343.804688 124 L 15.304688 124 Z M 15.304688 0 " clip-rule="nonzero"/></clipPath><clipPath id="26306629e3"><path d="M 62 128 L 343.804688 128 L 343.804688 375 L 62 375 Z M 62 128 " clip-rule="nonzero"/></clipPath><clipPath id="225b7654c8"><path d="M 332 105 L 343.804688 105 L 343.804688 118 L 332 118 Z M 332 105 " clip-rule="nonzero"/></clipPath></defs><path fill="#ffaf36" d="M 267.546875 5.859375 L 337.941406 76.171875 L 267.546875 76.171875 Z M 267.546875 5.859375 " fill-opacity="1" fill-rule="nonzero"/><path fill="#ff6d00" d="M 337.941406 76.171875 L 337.941406 369.140625 L 68.101562 369.140625 L 68.101562 5.859375 L 267.546875 5.859375 L 267.546875 76.171875 Z M 337.941406 76.171875 " fill-opacity="1" fill-rule="nonzero"/><path fill="#f54e00" d="M 79.832031 52.734375 L 79.832031 333.984375 C 79.832031 334.753906 79.871094 335.519531 79.945312 336.28125 C 80.019531 337.046875 80.132812 337.804688 80.285156 338.558594 C 80.433594 339.308594 80.621094 340.054688 80.84375 340.789062 C 81.066406 341.523438 81.324219 342.246094 81.617188 342.953125 C 81.914062 343.664062 82.242188 344.355469 82.605469 345.03125 C 82.964844 345.710938 83.359375 346.367188 83.789062 347.003906 C 84.214844 347.644531 84.671875 348.257812 85.160156 348.851562 C 85.648438 349.445312 86.160156 350.015625 86.707031 350.558594 C 87.25 351.101562 87.816406 351.613281 88.410156 352.101562 C 89.003906 352.589844 89.621094 353.046875 90.261719 353.472656 C 90.898438 353.898438 91.558594 354.292969 92.234375 354.65625 C 92.914062 355.015625 93.609375 355.34375 94.316406 355.636719 C 95.027344 355.929688 95.75 356.191406 96.484375 356.414062 C 97.222656 356.636719 97.964844 356.820312 98.71875 356.972656 C 99.472656 357.121094 100.234375 357.234375 100.996094 357.308594 C 101.761719 357.382812 102.527344 357.421875 103.296875 357.421875 L 302.742188 357.421875 C 303.511719 357.421875 304.277344 357.382812 305.042969 357.308594 C 305.808594 357.234375 306.566406 357.121094 307.320312 356.972656 C 308.074219 356.820312 308.820312 356.636719 309.554688 356.414062 C 310.289062 356.191406 311.011719 355.929688 311.722656 355.636719 C 312.433594 355.34375 313.125 355.015625 313.804688 354.65625 C 314.480469 354.292969 315.140625 353.898438 315.78125 353.472656 C 316.417969 353.046875 317.035156 352.589844 317.628906 352.101562 C 318.222656 351.613281 318.792969 351.101562 319.335938 350.558594 C 319.878906 350.015625 320.394531 349.445312 320.882812 348.851562 C 321.371094 348.257812 321.828125 347.644531 322.253906 347.003906 C 322.679688 346.367188 323.074219 345.710938 323.4375 345.03125 C 323.800781 344.355469 324.128906 343.664062 324.421875 342.953125 C 324.714844 342.246094 324.972656 341.523438 325.199219 340.789062 C 325.421875 340.054688 325.605469 339.308594 325.757812 338.558594 C 325.90625 337.804688 326.019531 337.046875 326.09375 336.28125 C 326.171875 335.519531 326.207031 334.753906 326.207031 333.984375 L 326.207031 321.542969 C 79.832031 306.378906 79.832031 52.734375 79.832031 52.734375 Z M 79.832031 52.734375 " fill-opacity="1" fill-rule="nonzero"/><path fill="#f54e00" d="M 273.414062 76.171875 L 337.941406 76.171875 L 337.941406 87.890625 L 273.414062 87.890625 Z M 273.414062 76.171875 " fill-opacity="1" fill-rule="nonzero"/><path fill="#f2f2f2" d="M 21.171875 23.4375 L 232.351562 23.4375 L 232.351562 117.1875 L 21.171875 117.1875 Z M 21.171875 23.4375 " fill-opacity="1" fill-rule="nonzero"/><path fill="#d63900" d="M 68.101562 117.1875 L 220.617188 117.1875 L 220.617188 134.765625 L 68.101562 134.765625 Z M 68.101562 117.1875 " fill-opacity="1" fill-rule="nonzero"/><path fill="#ffffff" d="M 138.492188 292.96875 L 91.566406 240.234375 L 138.492188 187.5 L 161.957031 187.5 L 115.03125 240.234375 L 161.957031 292.96875 Z M 138.492188 292.96875 " fill-opacity="1" fill-rule="nonzero"/><path fill="#ffffff" d="M 267.546875 292.96875 L 314.476562 240.234375 L 267.546875 187.5 L 244.082031 187.5 L 291.011719 240.234375 L 244.082031 292.96875 Z M 267.546875 292.96875 " fill-opacity="1" fill-rule="nonzero"/><path fill="#ffffff" d="M 179.554688 292.96875 L 208.886719 187.5 L 226.484375 187.5 L 197.15625 292.96875 Z M 179.554688 292.96875 " fill-opacity="1" fill-rule="nonzero"/><path fill="#d63900" d="M 91.566406 240.234375 L 128.0625 199.21875 L 126.761719 199.21875 L 79.832031 251.953125 L 126.761719 304.6875 L 150.226562 304.6875 L 139.796875 292.96875 L 138.492188 292.96875 Z M 91.566406 240.234375 " fill-opacity="1" fill-rule="nonzero"/><path fill="#d63900" d="M 291.011719 240.234375 L 254.511719 199.21875 L 232.351562 199.21875 L 279.28125 251.953125 L 232.351562 304.6875 L 255.816406 304.6875 L 266.246094 292.96875 L 244.082031 292.96875 Z M 291.011719 240.234375 " fill-opacity="1" fill-rule="nonzero"/><path fill="#d63900" d="M 205.625 199.21875 L 197.15625 199.21875 L 167.824219 304.6875 L 185.421875 304.6875 L 188.683594 292.96875 L 179.554688 292.96875 Z M 205.625 199.21875 " fill-opacity="1" fill-rule="nonzero"/><path fill="#cdd1d6" d="M 185.421875 93.75 L 185.421875 46.875 L 179.554688 46.875 L 179.554688 99.609375 C 179.554688 99.992188 179.59375 100.375 179.667969 100.753906 C 179.742188 101.128906 179.855469 101.496094 180.003906 101.851562 C 180.148438 102.207031 180.332031 102.542969 180.542969 102.863281 C 180.757812 103.183594 181 103.480469 181.273438 103.753906 C 181.546875 104.023438 181.84375 104.265625 182.164062 104.480469 C 182.484375 104.695312 182.820312 104.875 183.175781 105.023438 C 183.53125 105.171875 183.898438 105.28125 184.277344 105.355469 C 184.65625 105.429688 185.035156 105.46875 185.421875 105.46875 L 208.886719 105.46875 L 208.886719 99.609375 L 191.289062 99.609375 C 190.902344 99.609375 190.523438 99.570312 190.144531 99.496094 C 189.765625 99.421875 189.398438 99.3125 189.042969 99.164062 C 188.6875 99.015625 188.347656 98.835938 188.027344 98.621094 C 187.707031 98.40625 187.414062 98.164062 187.140625 97.894531 C 186.867188 97.621094 186.625 97.324219 186.410156 97.003906 C 186.195312 96.683594 186.015625 96.347656 185.867188 95.992188 C 185.722656 95.636719 185.609375 95.269531 185.535156 94.894531 C 185.460938 94.515625 185.421875 94.132812 185.421875 93.75 Z M 185.421875 93.75 " fill-opacity="1" fill-rule="nonzero"/><path fill="#cdd1d6" d="M 62.234375 46.875 L 68.101562 46.875 L 68.101562 64.453125 L 62.234375 64.453125 Z M 62.234375 46.875 " fill-opacity="1" fill-rule="nonzero"/><path fill="#cdd1d6" d="M 38.769531 46.875 L 32.90625 46.875 L 32.90625 105.46875 L 44.636719 105.46875 L 44.636719 99.609375 L 38.769531 99.609375 Z M 38.769531 46.875 " fill-opacity="1" fill-rule="nonzero"/><path fill="#cdd1d6" d="M 68.101562 76.171875 L 50.503906 76.171875 L 50.503906 82.03125 L 62.234375 82.03125 L 62.234375 105.46875 L 73.96875 105.46875 L 73.96875 99.609375 L 68.101562 99.609375 Z M 68.101562 76.171875 " fill-opacity="1" fill-rule="nonzero"/><path fill="#cdd1d6" d="M 109.164062 52.734375 L 115.03125 52.734375 L 115.03125 58.59375 L 109.164062 58.59375 Z M 109.164062 52.734375 " fill-opacity="1" fill-rule="nonzero"/><path fill="#cdd1d6" d="M 97.429688 52.734375 L 85.699219 52.734375 L 85.699219 46.875 L 79.832031 46.875 L 79.832031 58.59375 L 91.566406 58.59375 L 91.566406 105.46875 L 103.296875 105.46875 L 103.296875 99.609375 L 97.429688 99.609375 Z M 97.429688 52.734375 " fill-opacity="1" fill-rule="nonzero"/><path fill="#cdd1d6" d="M 126.761719 46.957031 C 126.367188 46.925781 125.976562 46.941406 125.589844 46.996094 C 124.925781 47.132812 124.304688 47.375 123.726562 47.722656 C 123.148438 48.074219 122.648438 48.507812 122.21875 49.03125 C 121.792969 49.554688 121.464844 50.132812 121.238281 50.769531 C 121.011719 51.402344 120.894531 52.058594 120.894531 52.734375 L 120.894531 105.46875 L 132.628906 105.46875 L 132.628906 99.609375 L 126.761719 99.609375 Z M 126.761719 46.957031 " fill-opacity="1" fill-rule="nonzero"/><path fill="#cdd1d6" d="M 161.417969 46.933594 C 160.894531 46.980469 160.382812 47.097656 159.890625 47.285156 C 159.394531 47.46875 158.9375 47.714844 158.507812 48.027344 C 158.082031 48.335938 157.703125 48.695312 157.375 49.105469 C 157.042969 49.519531 156.777344 49.964844 156.566406 50.449219 L 148.546875 69.140625 L 150.226562 73.042969 Z M 161.417969 46.933594 " fill-opacity="1" fill-rule="nonzero"/><path fill="#cdd1d6" d="M 144.835938 90.199219 L 138.492188 75.421875 L 138.492188 94.921875 L 138.96875 96.027344 C 139.195312 96.554688 139.492188 97.039062 139.859375 97.480469 C 140.230469 97.917969 140.652344 98.296875 141.132812 98.613281 C 141.609375 98.925781 142.125 99.167969 142.675781 99.332031 C 143.222656 99.496094 143.785156 99.578125 144.359375 99.578125 C 144.933594 99.578125 145.496094 99.496094 146.042969 99.332031 C 146.59375 99.167969 147.109375 98.925781 147.589844 98.613281 C 148.066406 98.296875 148.492188 97.917969 148.859375 97.480469 C 149.226562 97.039062 149.523438 96.554688 149.75 96.027344 L 150.777344 93.636719 C 150.589844 93.636719 150.414062 93.71875 150.226562 93.71875 C 149.652344 93.722656 149.09375 93.640625 148.542969 93.476562 C 147.996094 93.316406 147.480469 93.078125 147.003906 92.765625 C 146.523438 92.453125 146.101562 92.078125 145.730469 91.640625 C 145.363281 91.203125 145.0625 90.722656 144.835938 90.199219 Z M 144.835938 90.199219 " fill-opacity="1" fill-rule="nonzero"/><path fill="#cdd1d6" d="M 161.957031 75.421875 L 156.09375 89.089844 L 156.09375 105.46875 L 167.824219 105.46875 L 167.824219 99.609375 L 161.957031 99.609375 Z M 161.957031 75.421875 " fill-opacity="1" fill-rule="nonzero"/><g clip-path="url(#9fdcb50c45)"><path fill="#000000" d="M 342.085938 72.027344 L 271.695312 1.71875 C 271.144531 1.167969 270.511719 0.742188 269.792969 0.445312 C 269.074219 0.148438 268.324219 0 267.546875 0 L 68.101562 0 C 67.714844 0 67.335938 0.0390625 66.957031 0.113281 C 66.578125 0.1875 66.210938 0.296875 65.855469 0.445312 C 65.5 0.59375 65.160156 0.773438 64.839844 0.988281 C 64.523438 1.203125 64.226562 1.445312 63.953125 1.714844 C 63.679688 1.988281 63.4375 2.285156 63.222656 2.605469 C 63.007812 2.925781 62.828125 3.261719 62.679688 3.617188 C 62.535156 3.972656 62.421875 4.339844 62.347656 4.714844 C 62.273438 5.09375 62.234375 5.476562 62.234375 5.859375 L 62.234375 17.578125 L 21.171875 17.578125 C 20.785156 17.578125 20.40625 17.617188 20.027344 17.691406 C 19.648438 17.765625 19.28125 17.875 18.925781 18.023438 C 18.570312 18.171875 18.234375 18.351562 17.914062 18.566406 C 17.59375 18.78125 17.296875 19.023438 17.023438 19.292969 C 16.75 19.566406 16.507812 19.863281 16.292969 20.183594 C 16.082031 20.503906 15.898438 20.839844 15.753906 21.195312 C 15.605469 21.550781 15.492188 21.917969 15.417969 22.292969 C 15.34375 22.671875 15.304688 23.054688 15.304688 23.4375 L 15.304688 117.1875 C 15.304688 117.570312 15.34375 117.953125 15.417969 118.332031 C 15.492188 118.707031 15.605469 119.074219 15.753906 119.429688 C 15.898438 119.785156 16.082031 120.121094 16.292969 120.441406 C 16.507812 120.761719 16.75 121.058594 17.023438 121.332031 C 17.296875 121.601562 17.59375 121.84375 17.914062 122.058594 C 18.234375 122.273438 18.570312 122.453125 18.925781 122.601562 C 19.28125 122.75 19.648438 122.859375 20.027344 122.933594 C 20.40625 123.007812 20.785156 123.046875 21.171875 123.046875 L 232.351562 123.046875 C 232.734375 123.046875 233.117188 123.007812 233.496094 122.933594 C 233.871094 122.859375 234.238281 122.75 234.59375 122.601562 C 234.953125 122.453125 235.289062 122.273438 235.609375 122.058594 C 235.929688 121.84375 236.226562 121.601562 236.5 121.332031 C 236.769531 121.058594 237.015625 120.761719 237.226562 120.441406 C 237.441406 120.121094 237.621094 119.785156 237.769531 119.429688 C 237.917969 119.074219 238.027344 118.707031 238.105469 118.332031 C 238.179688 117.953125 238.21875 117.570312 238.21875 117.1875 L 238.21875 23.4375 C 238.21875 23.054688 238.179688 22.671875 238.105469 22.292969 C 238.027344 21.917969 237.917969 21.550781 237.769531 21.195312 C 237.621094 20.839844 237.441406 20.503906 237.226562 20.183594 C 237.015625 19.863281 236.769531 19.566406 236.5 19.292969 C 236.226562 19.023438 235.929688 18.78125 235.609375 18.566406 C 235.289062 18.351562 234.953125 18.171875 234.59375 18.023438 C 234.238281 17.875 233.871094 17.765625 233.496094 17.691406 C 233.117188 17.617188 232.734375 17.578125 232.351562 17.578125 L 73.96875 17.578125 L 73.96875 11.71875 L 261.679688 11.71875 L 261.679688 76.171875 C 261.679688 76.554688 261.71875 76.9375 261.792969 77.316406 C 261.867188 77.691406 261.980469 78.058594 262.128906 78.414062 C 262.273438 78.769531 262.457031 79.105469 262.667969 79.425781 C 262.882812 79.746094 263.125 80.042969 263.398438 80.316406 C 263.671875 80.585938 263.96875 80.828125 264.289062 81.042969 C 264.609375 81.257812 264.945312 81.4375 265.300781 81.585938 C 265.65625 81.734375 266.023438 81.84375 266.402344 81.917969 C 266.78125 81.992188 267.160156 82.03125 267.546875 82.03125 L 332.074219 82.03125 L 332.074219 93.75 L 343.804688 93.75 L 343.804688 76.171875 C 343.804688 75.394531 343.65625 74.648438 343.359375 73.929688 C 343.0625 73.210938 342.636719 72.578125 342.085938 72.027344 Z M 226.484375 111.328125 L 27.039062 111.328125 L 27.039062 29.296875 L 226.484375 29.296875 Z M 273.414062 20.003906 L 323.78125 70.3125 L 273.414062 70.3125 Z M 273.414062 20.003906 " fill-opacity="1" fill-rule="nonzero"/></g><path fill="#000000" d="M 62.234375 134.765625 L 73.96875 134.765625 L 73.96875 146.484375 L 62.234375 146.484375 Z M 62.234375 134.765625 " fill-opacity="1" fill-rule="nonzero"/><path fill="#000000" d="M 62.234375 158.203125 L 73.96875 158.203125 L 73.96875 328.125 L 62.234375 328.125 Z M 62.234375 158.203125 " fill-opacity="1" fill-rule="nonzero"/><g clip-path="url(#26306629e3)"><path fill="#000000" d="M 332.074219 363.28125 L 73.96875 363.28125 L 73.96875 339.84375 L 62.234375 339.84375 L 62.234375 369.140625 C 62.234375 369.523438 62.273438 369.90625 62.347656 370.285156 C 62.421875 370.660156 62.535156 371.027344 62.679688 371.382812 C 62.828125 371.738281 63.007812 372.074219 63.222656 372.394531 C 63.4375 372.714844 63.679688 373.011719 63.953125 373.285156 C 64.226562 373.554688 64.523438 373.796875 64.839844 374.011719 C 65.160156 374.226562 65.5 374.40625 65.855469 374.554688 C 66.210938 374.699219 66.578125 374.8125 66.957031 374.886719 C 67.335938 374.960938 67.714844 375 68.101562 375 L 337.941406 375 C 338.324219 375 338.707031 374.960938 339.085938 374.886719 C 339.460938 374.8125 339.828125 374.699219 340.183594 374.554688 C 340.539062 374.40625 340.878906 374.226562 341.199219 374.011719 C 341.519531 373.796875 341.816406 373.554688 342.089844 373.285156 C 342.359375 373.011719 342.601562 372.714844 342.816406 372.394531 C 343.03125 372.074219 343.210938 371.738281 343.359375 371.382812 C 343.507812 371.027344 343.617188 370.660156 343.695312 370.285156 C 343.769531 369.90625 343.804688 369.523438 343.804688 369.140625 L 343.804688 128.90625 L 332.074219 128.90625 Z M 332.074219 363.28125 " fill-opacity="1" fill-rule="nonzero"/></g><g clip-path="url(#225b7654c8)"><path fill="#000000" d="M 332.074219 105.46875 L 343.804688 105.46875 L 343.804688 117.1875 L 332.074219 117.1875 Z M 332.074219 105.46875 " fill-opacity="1" fill-rule="nonzero"/></g><path fill="#000000" d="M 191.289062 99.609375 L 214.753906 99.609375 L 214.753906 87.890625 L 197.15625 87.890625 L 197.15625 41.015625 L 185.421875 41.015625 L 185.421875 93.75 C 185.421875 94.132812 185.460938 94.515625 185.535156 94.894531 C 185.609375 95.269531 185.722656 95.636719 185.867188 95.992188 C 186.015625 96.347656 186.195312 96.683594 186.410156 97.003906 C 186.625 97.324219 186.867188 97.621094 187.140625 97.894531 C 187.414062 98.164062 187.707031 98.40625 188.027344 98.621094 C 188.347656 98.835938 188.6875 99.015625 189.042969 99.164062 C 189.398438 99.3125 189.765625 99.421875 190.144531 99.496094 C 190.523438 99.570312 190.902344 99.609375 191.289062 99.609375 Z M 191.289062 99.609375 " fill-opacity="1" fill-rule="nonzero"/><path fill="#000000" d="M 50.503906 76.171875 L 68.101562 76.171875 L 68.101562 99.609375 L 79.832031 99.609375 L 79.832031 41.015625 L 68.101562 41.015625 L 68.101562 64.453125 L 50.503906 64.453125 L 50.503906 41.015625 L 38.769531 41.015625 L 38.769531 99.609375 L 50.503906 99.609375 Z M 50.503906 76.171875 " fill-opacity="1" fill-rule="nonzero"/><path fill="#000000" d="M 97.429688 99.609375 L 109.164062 99.609375 L 109.164062 52.734375 L 120.894531 52.734375 L 120.894531 41.015625 L 85.699219 41.015625 L 85.699219 52.734375 L 97.429688 52.734375 Z M 97.429688 99.609375 " fill-opacity="1" fill-rule="nonzero"/><path fill="#000000" d="M 138.492188 75.421875 L 144.835938 90.199219 C 145.0625 90.726562 145.359375 91.210938 145.726562 91.648438 C 146.09375 92.089844 146.519531 92.464844 146.996094 92.78125 C 147.476562 93.097656 147.992188 93.335938 148.539062 93.5 C 149.089844 93.667969 149.652344 93.75 150.226562 93.75 C 150.800781 93.75 151.359375 93.667969 151.910156 93.5 C 152.460938 93.335938 152.976562 93.097656 153.453125 92.78125 C 153.933594 92.464844 154.355469 92.089844 154.726562 91.648438 C 155.09375 91.210938 155.390625 90.726562 155.617188 90.199219 L 161.957031 75.421875 L 161.957031 99.609375 L 173.691406 99.609375 L 173.691406 46.875 C 173.691406 46.199219 173.578125 45.546875 173.351562 44.910156 C 173.125 44.273438 172.796875 43.695312 172.371094 43.171875 C 171.941406 42.648438 171.441406 42.214844 170.863281 41.863281 C 170.285156 41.515625 169.664062 41.273438 169.003906 41.136719 C 168.34375 41 167.675781 40.980469 167.007812 41.074219 C 166.339844 41.167969 165.707031 41.371094 165.105469 41.683594 C 164.507812 41.996094 163.980469 42.398438 163.519531 42.894531 C 163.0625 43.390625 162.699219 43.945312 162.433594 44.566406 L 150.226562 73.011719 L 138.019531 44.566406 C 137.753906 43.945312 137.390625 43.390625 136.929688 42.894531 C 136.472656 42.398438 135.941406 41.996094 135.34375 41.683594 C 134.746094 41.371094 134.113281 41.167969 133.441406 41.074219 C 132.773438 40.980469 132.109375 41 131.449219 41.136719 C 130.785156 41.273438 130.167969 41.515625 129.589844 41.863281 C 129.011719 42.214844 128.507812 42.648438 128.082031 43.171875 C 127.65625 43.695312 127.328125 44.273438 127.101562 44.910156 C 126.875 45.546875 126.761719 46.199219 126.761719 46.875 L 126.761719 99.609375 L 138.492188 99.609375 Z M 138.492188 75.421875 " fill-opacity="1" fill-rule="nonzero"/><path fill="#000000" d="M 167.308594 185.097656 C 167.074219 184.582031 166.777344 184.109375 166.40625 183.683594 C 166.039062 183.253906 165.617188 182.886719 165.144531 182.582031 C 164.667969 182.273438 164.160156 182.039062 163.617188 181.878906 C 163.078125 181.71875 162.523438 181.640625 161.957031 181.640625 L 138.492188 181.640625 C 137.65625 181.640625 136.855469 181.8125 136.09375 182.152344 C 135.328125 182.496094 134.667969 182.980469 134.113281 183.601562 L 87.183594 236.335938 C 86.945312 236.605469 86.738281 236.890625 86.550781 237.191406 C 86.367188 237.496094 86.210938 237.816406 86.085938 238.148438 C 85.960938 238.480469 85.863281 238.820312 85.800781 239.171875 C 85.734375 239.519531 85.703125 239.871094 85.703125 240.226562 C 85.703125 240.585938 85.734375 240.9375 85.800781 241.285156 C 85.863281 241.636719 85.960938 241.976562 86.085938 242.308594 C 86.210938 242.640625 86.367188 242.960938 86.550781 243.265625 C 86.738281 243.566406 86.945312 243.851562 87.183594 244.117188 L 134.113281 296.851562 C 134.667969 297.480469 135.328125 297.964844 136.089844 298.308594 C 136.855469 298.652344 137.65625 298.828125 138.492188 298.828125 L 161.957031 298.828125 C 162.523438 298.828125 163.078125 298.746094 163.617188 298.585938 C 164.160156 298.425781 164.667969 298.195312 165.144531 297.886719 C 165.617188 297.578125 166.039062 297.210938 166.40625 296.785156 C 166.773438 296.355469 167.074219 295.882812 167.304688 295.367188 C 167.535156 294.851562 167.691406 294.316406 167.765625 293.757812 C 167.84375 293.199219 167.835938 292.640625 167.753906 292.082031 C 167.667969 291.523438 167.503906 290.988281 167.261719 290.476562 C 167.023438 289.964844 166.714844 289.5 166.339844 289.078125 L 122.878906 240.234375 L 166.339844 191.394531 C 166.714844 190.972656 167.023438 190.507812 167.265625 189.996094 C 167.507812 189.484375 167.671875 188.949219 167.757812 188.390625 C 167.84375 187.832031 167.847656 187.273438 167.769531 186.710938 C 167.695312 186.152344 167.539062 185.613281 167.308594 185.097656 Z M 110.648438 236.34375 C 110.410156 236.609375 110.199219 236.894531 110.015625 237.199219 C 109.832031 237.503906 109.675781 237.820312 109.550781 238.152344 C 109.421875 238.484375 109.328125 238.828125 109.265625 239.175781 C 109.199219 239.527344 109.167969 239.878906 109.167969 240.234375 C 109.167969 240.589844 109.199219 240.941406 109.265625 241.292969 C 109.328125 241.640625 109.421875 241.984375 109.550781 242.316406 C 109.675781 242.648438 109.832031 242.964844 110.015625 243.269531 C 110.199219 243.574219 110.410156 243.859375 110.648438 244.125 L 148.894531 287.109375 L 141.128906 287.109375 L 99.414062 240.234375 L 141.128906 193.359375 L 148.894531 193.359375 Z M 110.648438 236.34375 " fill-opacity="1" fill-rule="nonzero"/><path fill="#000000" d="M 238.734375 295.363281 C 238.964844 295.878906 239.265625 296.351562 239.632812 296.78125 C 240 297.210938 240.421875 297.578125 240.894531 297.886719 C 241.371094 298.191406 241.878906 298.425781 242.421875 298.585938 C 242.964844 298.746094 243.515625 298.828125 244.082031 298.828125 L 267.546875 298.828125 C 268.382812 298.828125 269.183594 298.65625 269.949219 298.3125 C 270.714844 297.96875 271.371094 297.484375 271.929688 296.859375 L 318.859375 244.125 C 319.09375 243.859375 319.304688 243.574219 319.488281 243.269531 C 319.671875 242.964844 319.828125 242.648438 319.957031 242.316406 C 320.082031 241.984375 320.175781 241.640625 320.242188 241.292969 C 320.304688 240.941406 320.335938 240.589844 320.335938 240.234375 C 320.335938 239.878906 320.304688 239.527344 320.242188 239.175781 C 320.175781 238.828125 320.082031 238.484375 319.957031 238.152344 C 319.828125 237.820312 319.671875 237.503906 319.488281 237.199219 C 319.304688 236.894531 319.09375 236.609375 318.859375 236.34375 L 271.929688 183.609375 C 271.371094 182.984375 270.714844 182.5 269.949219 182.15625 C 269.183594 181.8125 268.382812 181.640625 267.546875 181.640625 L 244.082031 181.640625 C 243.515625 181.640625 242.964844 181.71875 242.421875 181.878906 C 241.878906 182.039062 241.371094 182.273438 240.894531 182.582031 C 240.417969 182.886719 239.996094 183.257812 239.628906 183.683594 C 239.261719 184.113281 238.960938 184.585938 238.730469 185.101562 C 238.5 185.617188 238.34375 186.15625 238.269531 186.714844 C 238.191406 187.273438 238.199219 187.832031 238.285156 188.390625 C 238.371094 188.949219 238.535156 189.484375 238.773438 189.996094 C 239.015625 190.507812 239.324219 190.972656 239.699219 191.394531 L 283.164062 240.234375 L 239.699219 289.078125 C 239.324219 289.5 239.019531 289.964844 238.777344 290.476562 C 238.539062 290.988281 238.375 291.519531 238.289062 292.078125 C 238.203125 292.636719 238.199219 293.195312 238.273438 293.753906 C 238.347656 294.3125 238.503906 294.851562 238.734375 295.363281 Z M 295.394531 244.125 C 295.628906 243.859375 295.839844 243.574219 296.023438 243.269531 C 296.210938 242.964844 296.363281 242.648438 296.492188 242.316406 C 296.617188 241.984375 296.710938 241.640625 296.777344 241.292969 C 296.839844 240.941406 296.875 240.589844 296.875 240.234375 C 296.875 239.878906 296.839844 239.527344 296.777344 239.175781 C 296.710938 238.828125 296.617188 238.484375 296.492188 238.152344 C 296.363281 237.820312 296.207031 237.503906 296.023438 237.199219 C 295.839844 236.894531 295.628906 236.609375 295.394531 236.34375 L 257.148438 193.359375 L 264.914062 193.359375 L 306.628906 240.234375 L 264.914062 287.109375 L 257.148438 287.109375 Z M 295.394531 244.125 " fill-opacity="1" fill-rule="nonzero"/><path fill="#000000" d="M 197.15625 298.828125 C 197.796875 298.828125 198.421875 298.726562 199.027344 298.523438 C 199.636719 298.316406 200.195312 298.023438 200.707031 297.636719 C 201.214844 297.246094 201.652344 296.789062 202.011719 296.257812 C 202.371094 295.730469 202.636719 295.15625 202.808594 294.539062 L 232.140625 189.070312 C 232.261719 188.636719 232.332031 188.191406 232.347656 187.738281 C 232.367188 187.289062 232.335938 186.839844 232.25 186.398438 C 232.164062 185.953125 232.03125 185.523438 231.84375 185.113281 C 231.660156 184.699219 231.433594 184.3125 231.15625 183.953125 C 230.882812 183.59375 230.574219 183.269531 230.222656 182.984375 C 229.875 182.695312 229.5 182.449219 229.09375 182.25 C 228.6875 182.050781 228.265625 181.898438 227.824219 181.792969 C 227.382812 181.691406 226.9375 181.640625 226.484375 181.640625 L 208.886719 181.640625 C 208.246094 181.640625 207.621094 181.742188 207.011719 181.945312 C 206.40625 182.152344 205.847656 182.445312 205.335938 182.832031 C 204.824219 183.222656 204.390625 183.679688 204.03125 184.210938 C 203.667969 184.738281 203.402344 185.3125 203.230469 185.929688 L 173.902344 291.398438 C 173.78125 291.832031 173.710938 292.277344 173.691406 292.730469 C 173.671875 293.179688 173.707031 293.628906 173.792969 294.070312 C 173.875 294.515625 174.011719 294.945312 174.195312 295.355469 C 174.378906 295.769531 174.609375 296.15625 174.882812 296.515625 C 175.15625 296.875 175.46875 297.199219 175.816406 297.484375 C 176.164062 297.773438 176.542969 298.019531 176.949219 298.21875 C 177.351562 298.417969 177.777344 298.570312 178.214844 298.675781 C 178.65625 298.777344 179.105469 298.828125 179.554688 298.828125 Z M 213.34375 193.359375 L 218.769531 193.359375 L 192.695312 287.109375 L 187.269531 287.109375 Z M 213.34375 193.359375 " fill-opacity="1" fill-rule="nonzero"/></svg>